<svg width="156" height="24" viewBox="0 0 156 24" fill="none" xmlns="http://www.w3.org/2000/svg">
<g clip-path="url(#clip0_712_27859)">
<path d="M46.9167 19.8946C44.9918 19.8946 43.4016 19.3594 42.1046 18.2479C40.8073 17.1363 40.1797 15.613 40.1797 13.6369C40.1797 11.6196 40.8073 10.014 42.0627 8.86121C43.318 7.70846 44.9499 7.13208 46.8748 7.13208C48.214 7.13208 49.3437 7.37911 50.2643 7.87315C51.143 8.36717 51.8126 9.02589 52.2729 9.76694C52.6914 10.5492 52.9424 11.3726 52.9424 12.196C52.9424 13.6369 52.2729 14.3368 51.0176 14.3368H44.0712C43.8202 14.3368 43.7365 14.5015 43.7365 14.7485C43.7365 15.4072 44.0712 15.9012 44.7826 16.2718C45.4939 16.6423 46.2891 16.807 47.2097 16.807C47.7537 16.807 48.2977 16.7658 48.8834 16.6011C49.4274 16.4364 49.9296 16.2306 50.348 15.9012C50.599 15.7366 50.8919 15.613 51.2268 15.613C51.6452 15.613 51.9799 15.7777 52.2729 16.0659C52.5658 16.3953 52.7332 16.7246 52.7332 17.1363C52.7332 17.6304 52.4402 18.1244 51.9382 18.5361C51.4359 18.9478 50.6829 19.277 49.7203 19.5242C48.758 19.7712 47.8373 19.8946 46.9167 19.8946ZM49.0927 11.9489C49.1344 11.9489 49.2183 11.9489 49.3019 11.9078C49.3856 11.9078 49.4693 11.7843 49.4693 11.6196C49.4693 11.2079 49.1763 10.8374 48.6743 10.508C48.172 10.1786 47.5025 9.97279 46.7074 9.97279C45.8288 9.97279 45.1173 10.1786 44.5733 10.5492C44.0293 10.9197 43.7783 11.2902 43.7783 11.6607C43.7783 11.8666 43.8619 11.9489 44.113 11.9489H49.0927Z" fill="#F26122"/>
<path d="M65.5261 19.8946C64.9821 19.8946 64.5218 19.7712 64.1871 19.4418C63.8524 19.1536 63.6849 18.7831 63.6849 18.2891V13.2664C63.6849 12.2783 63.4339 11.5373 62.9736 11.0844C62.5133 10.6727 61.9693 10.4257 61.2999 10.4257C60.5884 10.4257 60.0026 10.6727 59.5423 11.0844C59.082 11.5373 58.7891 12.0313 58.7054 12.6077V18.1244C58.7054 18.6184 58.4961 18.9889 58.1614 19.3182C57.8267 19.6476 57.4081 19.7712 56.9061 19.7712C56.3621 19.7712 55.9018 19.6476 55.5669 19.3182C55.1905 19.0301 55.0229 18.6596 55.0229 18.1656V8.94355C55.0229 8.53187 55.1905 8.16132 55.5252 7.83197C55.8599 7.50261 56.3202 7.33793 56.9061 7.33793C57.3245 7.33793 57.7011 7.46145 58.0358 7.70846C58.3288 7.95549 58.538 8.24368 58.6635 8.57302C59.4167 7.62612 60.5466 7.13208 62.0949 7.13208C63.6431 7.13208 64.8985 7.58496 65.9027 8.49069C66.8653 9.39641 67.3673 10.8374 67.3673 12.8135V18.3714C67.3673 18.8243 67.1581 19.1948 66.8234 19.483C66.4887 19.7712 66.0284 19.8946 65.5261 19.8946Z" fill="#F26122"/>
<path d="M75.4484 19.8947C73.5655 19.8947 72.0589 19.3184 70.9292 18.1657C69.7994 17.0129 69.2554 15.4485 69.2554 13.4723C69.2554 11.5374 69.7994 10.0141 70.8873 8.86132C71.9753 7.70857 73.4818 7.13219 75.323 7.13219C76.4947 7.13219 77.5826 7.58507 78.545 8.40846V4.24006C78.545 3.7872 78.7123 3.41665 79.0472 3.0873C79.3819 2.75795 79.8003 2.59326 80.3444 2.59326C80.8884 2.59326 81.3487 2.75795 81.6834 3.0873C82.0181 3.41665 82.2274 3.7872 82.2274 4.19888V18.2892C82.2274 18.7832 82.0181 19.1538 81.6834 19.4419C81.3487 19.7713 80.8884 19.8947 80.3444 19.8947C79.4238 19.8947 78.8799 19.5243 78.6286 18.7421C77.75 19.5243 76.7037 19.8947 75.4484 19.8947ZM75.7414 16.5601C76.5783 16.5601 77.2477 16.2719 77.75 15.6955C78.252 15.1191 78.545 14.3781 78.545 13.4723C78.545 12.5666 78.252 11.8667 77.75 11.2903C77.2477 10.7551 76.5783 10.4669 75.7414 10.4669C74.8627 10.4669 74.1512 10.7551 73.6491 11.2903C73.1469 11.8667 72.8959 12.5666 72.8959 13.4723C72.8959 14.3781 73.1469 15.1191 73.6491 15.6955C74.1512 16.2719 74.8627 16.5601 75.7414 16.5601Z" fill="#F26122"/>
<path d="M90.7317 19.8946C89.5182 19.8946 88.4302 19.6476 87.4259 19.0712C86.4216 18.5361 85.5847 17.795 84.999 16.807C84.4131 15.8189 84.1201 14.7073 84.1201 13.4722C84.1201 12.2371 84.4131 11.1255 84.999 10.1786C85.5847 9.23174 86.4216 8.49069 87.4259 7.95549C88.4302 7.42027 89.5182 7.13208 90.7317 7.13208C91.9451 7.13208 93.0333 7.42027 94.0376 7.95549C95.0419 8.49069 95.8369 9.23174 96.4226 10.1786C97.0085 11.1255 97.3014 12.2371 97.3014 13.4722C97.3014 14.7073 97.0085 15.8189 96.4226 16.807C95.8369 17.795 95.0419 18.5361 94.0376 19.0712C93.0333 19.6476 91.9451 19.8946 90.7317 19.8946ZM90.7317 16.5599C91.5687 16.5599 92.28 16.2718 92.824 15.6954C93.368 15.119 93.6609 14.3779 93.6609 13.4722C93.6609 12.5665 93.368 11.8666 92.824 11.2902C92.28 10.755 91.5687 10.4668 90.7317 10.4668C89.8948 10.4668 89.1835 10.755 88.5976 11.2902C88.0118 11.8666 87.7606 12.5665 87.7606 13.4722C87.7606 14.3779 88.0118 15.119 88.5976 15.6954C89.1835 16.2718 89.8948 16.5599 90.7317 16.5599Z" fill="#F26122"/>
<path d="M101.297 19.7712C100.753 19.7712 100.292 19.6476 99.9576 19.3182C99.5809 19.03 99.4136 18.6596 99.4136 18.1656V8.94355C99.4136 8.53187 99.5809 8.16132 99.9156 7.83197C100.251 7.50261 100.711 7.33793 101.297 7.33793C101.799 7.33793 102.175 7.50263 102.51 7.7908C102.845 8.07898 103.012 8.40835 103.096 8.82004C103.389 8.36717 103.807 7.95549 104.351 7.62612C104.853 7.29677 105.439 7.13208 106.025 7.13208C106.36 7.13208 106.737 7.17326 107.071 7.2556C107.448 7.37911 107.783 7.58496 108.034 7.91431C108.285 8.24368 108.41 8.57302 108.41 8.98473C108.41 9.56111 108.201 10.0551 107.824 10.4257C107.448 10.7962 107.029 10.9197 106.527 10.7962C106.151 10.7138 105.774 10.6727 105.439 10.6727C104.77 10.6727 104.268 10.9197 103.849 11.3314C103.431 11.7843 103.18 12.69 103.096 14.0074V18.1244C103.096 18.6184 102.887 18.9889 102.552 19.3182C102.217 19.6476 101.799 19.7712 101.297 19.7712Z" fill="#F26122"/>
<path d="M114.217 19.8946C112.292 19.8946 110.744 19.5242 109.53 18.7419C109.279 18.5772 109.07 18.4126 108.986 18.1656C108.861 17.9186 108.819 17.7127 108.819 17.4657C108.819 17.0128 108.944 16.6011 109.279 16.1894C109.614 15.8189 109.99 15.613 110.493 15.613C110.702 15.613 110.911 15.6954 111.162 15.7777C111.664 16.0247 112.208 16.1894 112.878 16.3541C113.505 16.5188 114.091 16.5599 114.635 16.5599C115.64 16.5599 116.184 16.3541 116.184 15.8601C116.184 15.613 116.058 15.366 115.807 15.1602C115.556 14.9543 114.97 14.7896 114.049 14.7073C113.673 14.7073 113.213 14.625 112.627 14.5426C112.041 14.4603 111.497 14.3368 110.953 14.0898C110.367 13.8427 109.907 13.5134 109.53 13.0194C109.154 12.5665 108.986 11.9489 108.986 11.1255C108.986 9.89046 109.447 8.94355 110.409 8.2025C111.329 7.50263 112.627 7.13208 114.217 7.13208C115.138 7.13208 115.974 7.2556 116.811 7.42027C117.648 7.62612 118.276 7.91431 118.694 8.28484C119.071 8.65536 119.28 9.06707 119.28 9.51993C119.28 9.93163 119.113 10.3022 118.82 10.6315C118.485 10.9609 118.108 11.1255 117.648 11.1255C117.397 11.1255 117.146 11.0844 116.937 10.9609C116.602 10.755 116.142 10.5903 115.64 10.4668C115.138 10.3845 114.593 10.3022 114.091 10.3022C113.003 10.3022 112.501 10.5492 112.501 10.9609C112.501 11.1667 112.585 11.3314 112.794 11.4961C113.003 11.6607 113.505 11.7843 114.259 11.8666C114.719 11.9489 115.263 12.0313 115.891 12.1136C116.476 12.196 117.062 12.3606 117.648 12.6077C118.234 12.8547 118.694 13.2252 119.113 13.7192C119.489 14.2544 119.699 14.9543 119.699 15.8601C119.699 17.0951 119.196 18.0832 118.192 18.8243C117.188 19.5652 115.849 19.8946 114.217 19.8946Z" fill="#F26122"/>
<path d="M126.814 19.8947C125.6 19.8947 124.596 19.5653 123.843 18.8655C123.048 18.2068 122.671 17.1364 122.671 15.6955V11.2492C122.671 11.0021 122.504 10.8375 122.253 10.8375H121.625C121.123 10.8375 120.747 10.714 120.495 10.3846C120.244 10.0964 120.119 9.7259 120.119 9.23185C120.119 8.73781 120.244 8.36729 120.495 8.03794C120.747 7.70857 121.123 7.5439 121.625 7.5439H122.253C122.504 7.5439 122.671 7.42038 122.671 7.13219V4.21432C122.671 3.76146 122.839 3.34976 123.173 3.02041C123.508 2.69104 123.927 2.52637 124.471 2.52637C124.973 2.52637 125.433 2.69104 125.768 3.02041C126.103 3.34976 126.312 3.72028 126.312 4.21432V7.13219C126.312 7.42038 126.437 7.5439 126.73 7.5439H128.279C128.739 7.5439 129.115 7.70857 129.45 8.03794C129.785 8.36729 129.952 8.77899 129.952 9.23185C129.952 9.7259 129.785 10.0964 129.45 10.3846C129.115 10.714 128.739 10.8375 128.237 10.8375H126.73C126.437 10.8375 126.312 11.0021 126.312 11.2492V15.1191C126.312 15.6132 126.396 15.9837 126.563 16.1484C126.73 16.3542 126.981 16.4365 127.274 16.4365C127.358 16.4365 127.609 16.4365 127.944 16.3542C128.279 16.2719 128.488 16.2307 128.572 16.2307C128.99 16.2307 129.367 16.3954 129.701 16.7247C129.994 17.0541 130.162 17.4658 130.162 17.9187C130.162 18.2892 130.036 18.6185 129.827 18.9068C129.618 19.2362 129.283 19.4419 128.864 19.5653C128.488 19.6889 128.153 19.7713 127.818 19.8125C127.484 19.8947 127.149 19.8947 126.814 19.8947Z" fill="#F26122"/>
<path d="M137.27 19.8946C135.387 19.8946 133.881 19.3182 132.709 18.1656C131.538 17.0128 130.994 15.4484 130.994 13.4722C130.994 11.5373 131.538 10.014 132.667 8.86121C133.797 7.70846 135.304 7.13208 137.145 7.13208C138.442 7.13208 139.572 7.58496 140.576 8.49069C140.66 8.16132 140.869 7.91431 141.204 7.6673C141.497 7.46145 141.873 7.33793 142.292 7.33793C142.836 7.33793 143.296 7.50261 143.631 7.83197C143.966 8.16132 144.175 8.53187 144.175 8.94355V18.2891C144.175 18.7831 143.966 19.1536 143.631 19.4418C143.296 19.7712 142.836 19.8946 142.292 19.8946C141.371 19.8946 140.785 19.5242 140.576 18.7008C139.656 19.5242 138.568 19.8946 137.27 19.8946ZM137.563 16.5599C138.442 16.5599 139.153 16.2718 139.697 15.6954C140.2 15.119 140.493 14.3779 140.493 13.4722C140.493 12.5665 140.2 11.8666 139.697 11.2902C139.153 10.755 138.442 10.4668 137.563 10.4668C136.684 10.4668 135.973 10.755 135.429 11.2902C134.885 11.8666 134.634 12.5665 134.634 13.4722C134.634 14.3779 134.885 15.119 135.429 15.6954C135.973 16.2718 136.684 16.5599 137.563 16.5599Z" fill="#F26122"/>
<path d="M148.782 19.7719C148.238 19.7719 147.778 19.6484 147.443 19.319C147.067 19.0308 146.899 18.6603 146.899 18.1663V8.94428C146.899 8.5326 147.067 8.16205 147.402 7.83271C147.736 7.50334 148.197 7.33866 148.782 7.33866C149.285 7.33866 149.661 7.50336 149.996 7.79153C150.331 8.07972 150.498 8.40908 150.582 8.82077C150.875 8.36791 151.293 7.95622 151.837 7.62685C152.339 7.29751 152.925 7.13281 153.511 7.13281C153.846 7.13281 154.222 7.17399 154.557 7.25633C154.934 7.37984 155.268 7.58569 155.52 7.91504C155.771 8.24441 155.896 8.57376 155.896 8.98546C155.896 9.56184 155.687 10.0559 155.31 10.4264C154.934 10.7969 154.515 10.9204 154.013 10.7969C153.636 10.7146 153.26 10.6734 152.925 10.6734C152.256 10.6734 151.753 10.9204 151.335 11.3321C150.917 11.785 150.666 12.6907 150.582 14.0082V18.1251C150.582 18.6192 150.373 18.9896 150.038 19.319C149.703 19.6484 149.285 19.7719 148.782 19.7719Z" fill="#F26122"/>
<path fill-rule="evenodd" clip-rule="evenodd" d="M30.2938 8.91154C30.1894 8.97539 30.083 9.03944 29.9747 9.10367C29.5094 7.24972 28.6072 5.56588 27.3825 4.16462C25.267 4.42966 21.6478 5.32167 18.8577 6.00935L18.856 6.00977C18.4763 6.10335 18.112 6.19313 17.769 6.27704C15.4229 6.85083 15.1271 5.37515 24.5551 1.78347C22.7008 0.652598 20.5154 0 18.1758 0C11.7354 0 6.46484 4.94483 6.04714 11.1986C5.55706 11.4677 5.09262 11.7364 4.65611 12.0032C3.21052 12.8867 2.00776 13.7882 1.19928 14.6651C0.474384 15.4512 -0.30712 16.6293 0.122679 17.9024C0.552478 19.1756 1.89361 19.6552 2.95132 19.8548C4.13102 20.0776 5.6411 20.0865 7.33458 19.9372C7.83624 19.893 8.3605 19.8342 8.90485 19.7613C11.1345 22.3544 14.4605 24 18.1758 24C23.304 24 27.6905 20.8649 29.4759 16.4303C19.529 18.7559 17.7142 18.0575 20.2483 17.0871C20.8894 16.8416 21.5997 16.5649 22.3436 16.2689C25.0396 15.2798 27.491 14.2035 29.5496 13.1252C29.8222 12.9868 30.0766 12.8526 30.3094 12.7239L30.3098 12.7171C30.7872 12.4544 31.24 12.1921 31.6661 11.9316C33.1116 11.0481 34.3144 10.1466 35.1229 9.26978C35.8479 8.4836 36.6294 7.30554 36.1995 6.03241C35.7698 4.75929 34.4287 4.27963 33.3709 4.07996C32.5569 3.92632 31.5857 3.87443 30.5054 3.90607C30.2125 3.91465 30.183 4.27395 30.4687 4.33869C31.3825 4.54583 32.232 4.76752 33.0249 5.21182C33.5696 5.51707 33.5637 6.30565 33.1949 6.70547C32.6205 7.3285 31.6486 8.08346 30.2938 8.91154ZM6.08219 13.2168C6.20164 14.388 6.49172 15.5095 6.92748 16.5567C5.42434 16.6795 4.24809 16.6475 3.44096 16.4951C2.85942 16.3853 2.78715 15.7713 3.12012 15.4102C3.6946 14.7872 4.44175 14.2171 5.79658 13.389C5.89026 13.3318 5.98548 13.2744 6.08219 13.2168ZM13.912 10.9774C14.1229 10.4108 14.929 10.4108 15.1399 10.9774L16.0128 13.3226C16.0791 13.5007 16.2204 13.6412 16.3996 13.7071L18.7586 14.5749C19.3286 14.7845 19.3286 15.5859 18.7586 15.7956L16.3996 16.6633C16.2204 16.7292 16.0791 16.8697 16.0128 17.0478L15.1399 19.3929C14.929 19.9595 14.1229 19.9595 13.912 19.3929L13.0391 17.0478C12.9728 16.8697 12.8315 16.7292 12.6523 16.6633L10.2933 15.7956C9.72336 15.5859 9.72336 14.7845 10.2933 14.5749L12.6523 13.7071C12.8315 13.6412 12.9728 13.5007 13.0391 13.3226L13.912 10.9774Z" fill="#F26122"/>
</g>
<defs>
<clipPath id="clip0_712_27859">
<rect width="156" height="24" fill="white"/>
</clipPath>
</defs>
</svg>
