<svg width="20" height="20" viewBox="0 0 20 20" fill="none" xmlns="http://www.w3.org/2000/svg">
<g filter="url(#filter0_i_1167_5176)">
<path d="M5.80176 11.3496L8.31694 13.8632L3.77564 18.4017C3.27402 18.903 2.49202 18.9342 2.02899 18.4715L1.19059 17.6336C0.727561 17.1709 0.758842 16.3894 1.26046 15.8881L5.80176 11.3496Z" fill="url(#paint0_linear_1167_5176)"/>
<path d="M5.80176 11.3496L8.31694 13.8632L3.77564 18.4017C3.27402 18.903 2.49202 18.9342 2.02899 18.4715L1.19059 17.6336C0.727561 17.1709 0.758842 16.3894 1.26046 15.8881L5.80176 11.3496Z" fill="url(#paint1_linear_1167_5176)"/>
<path d="M5.80176 11.3496L8.31694 13.8632L3.77564 18.4017C3.27402 18.903 2.49202 18.9342 2.02899 18.4715L1.19059 17.6336C0.727561 17.1709 0.758842 16.3894 1.26046 15.8881L5.80176 11.3496Z" fill="url(#paint2_linear_1167_5176)"/>
<path d="M5.80176 11.3496L8.31694 13.8632L3.77564 18.4017C3.27402 18.903 2.49202 18.9342 2.02899 18.4715L1.19059 17.6336C0.727561 17.1709 0.758842 16.3894 1.26046 15.8881L5.80176 11.3496Z" fill="url(#paint3_linear_1167_5176)"/>
</g>
<g filter="url(#filter1_i_1167_5176)">
<path d="M15.0352 8.00964C14.1091 8.93512 12.6077 8.93512 11.6816 8.00964C10.7555 7.08415 10.7555 5.58365 11.6816 4.65816C12.6077 3.73268 14.1091 3.73268 15.0352 4.65816C15.9612 5.58365 15.9612 7.08415 15.0352 8.00964Z" fill="url(#paint4_linear_1167_5176)"/>
<path d="M15.0352 8.00964C14.1091 8.93512 12.6077 8.93512 11.6816 8.00964C10.7555 7.08415 10.7555 5.58365 11.6816 4.65816C12.6077 3.73268 14.1091 3.73268 15.0352 4.65816C15.9612 5.58365 15.9612 7.08415 15.0352 8.00964Z" fill="url(#paint5_linear_1167_5176)"/>
<path d="M15.0352 8.00964C14.1091 8.93512 12.6077 8.93512 11.6816 8.00964C10.7555 7.08415 10.7555 5.58365 11.6816 4.65816C12.6077 3.73268 14.1091 3.73268 15.0352 4.65816C15.9612 5.58365 15.9612 7.08415 15.0352 8.00964Z" fill="url(#paint6_linear_1167_5176)"/>
<path d="M15.0352 8.00964C14.1091 8.93512 12.6077 8.93512 11.6816 8.00964C10.7555 7.08415 10.7555 5.58365 11.6816 4.65816C12.6077 3.73268 14.1091 3.73268 15.0352 4.65816C15.9612 5.58365 15.9612 7.08415 15.0352 8.00964Z" fill="url(#paint7_linear_1167_5176)"/>
</g>
<g filter="url(#filter2_i_1167_5176)">
<path d="M7.40031 0.547928C7.68135 0.26689 8.12807 0.257955 8.39809 0.527973L10.3537 2.48361C10.6237 2.75363 10.6148 3.20035 10.3338 3.48139L4.22739 9.58778C3.94635 9.86881 3.49963 9.87775 3.22961 9.60773L1.27397 7.65209C1.00395 7.38207 1.01289 6.93535 1.29393 6.65432L7.40031 0.547928Z" fill="url(#paint8_linear_1167_5176)"/>
<path d="M7.40031 0.547928C7.68135 0.26689 8.12807 0.257955 8.39809 0.527973L10.3537 2.48361C10.6237 2.75363 10.6148 3.20035 10.3338 3.48139L4.22739 9.58778C3.94635 9.86881 3.49963 9.87775 3.22961 9.60773L1.27397 7.65209C1.00395 7.38207 1.01289 6.93535 1.29393 6.65432L7.40031 0.547928Z" fill="url(#paint9_linear_1167_5176)"/>
<path d="M7.40031 0.547928C7.68135 0.26689 8.12807 0.257955 8.39809 0.527973L10.3537 2.48361C10.6237 2.75363 10.6148 3.20035 10.3338 3.48139L4.22739 9.58778C3.94635 9.86881 3.49963 9.87775 3.22961 9.60773L1.27397 7.65209C1.00395 7.38207 1.01289 6.93535 1.29393 6.65432L7.40031 0.547928Z" fill="url(#paint10_linear_1167_5176)"/>
<path d="M7.40031 0.547928C7.68135 0.26689 8.12807 0.257955 8.39809 0.527973L10.3537 2.48361C10.6237 2.75363 10.6148 3.20035 10.3338 3.48139L4.22739 9.58778C3.94635 9.86881 3.49963 9.87775 3.22961 9.60773L1.27397 7.65209C1.00395 7.38207 1.01289 6.93535 1.29393 6.65432L7.40031 0.547928Z" fill="url(#paint11_linear_1167_5176)"/>
</g>
<path d="M16.2881 9.25L10.0001 15.534L4.13138 9.66893L10.4193 3.38491L16.2881 9.25Z" fill="#DBFF49"/>
<path d="M16.2881 9.25L10.0001 15.534L4.13138 9.66893L10.4193 3.38491L16.2881 9.25Z" fill="#CCFF00"/>
<path d="M16.2881 9.25L10.0001 15.534L4.13138 9.66893L10.4193 3.38491L16.2881 9.25Z" fill="#FFE600"/>
<g filter="url(#filter3_i_1167_5176)">
<path d="M16.1931 9.3505C16.4743 9.06955 16.9211 9.06062 17.1912 9.33055L19.1475 11.2856C19.4176 11.5555 19.4086 12.0021 19.1275 12.283L13.0192 18.3875C12.7381 18.6685 12.2912 18.6774 12.0211 18.4075L10.0649 16.4524C9.79477 16.1825 9.8037 15.7359 10.0848 15.455L16.1931 9.3505Z" fill="url(#paint12_linear_1167_5176)"/>
<path d="M16.1931 9.3505C16.4743 9.06955 16.9211 9.06062 17.1912 9.33055L19.1475 11.2856C19.4176 11.5555 19.4086 12.0021 19.1275 12.283L13.0192 18.3875C12.7381 18.6685 12.2912 18.6774 12.0211 18.4075L10.0649 16.4524C9.79477 16.1825 9.8037 15.7359 10.0848 15.455L16.1931 9.3505Z" fill="url(#paint13_linear_1167_5176)"/>
<path d="M16.1931 9.3505C16.4743 9.06955 16.9211 9.06062 17.1912 9.33055L19.1475 11.2856C19.4176 11.5555 19.4086 12.0021 19.1275 12.283L13.0192 18.3875C12.7381 18.6685 12.2912 18.6774 12.0211 18.4075L10.0649 16.4524C9.79477 16.1825 9.8037 15.7359 10.0848 15.455L16.1931 9.3505Z" fill="url(#paint14_linear_1167_5176)"/>
</g>
<path d="M11.2339 8.62354C11.1558 8.35531 11.0112 8.14567 10.8003 7.99463C10.592 7.84098 10.3354 7.76416 10.0308 7.76416C9.7391 7.76416 9.48258 7.83708 9.26123 7.98291C9.03988 8.12874 8.868 8.34229 8.74561 8.62354C8.62321 8.90218 8.56201 9.23551 8.56201 9.62354C8.56201 10.0168 8.62191 10.354 8.7417 10.6353C8.8641 10.9165 9.03597 11.1313 9.25732 11.2798C9.47868 11.4256 9.7391 11.4985 10.0386 11.4985C10.3042 11.4985 10.5334 11.4517 10.7261 11.3579C10.9214 11.2616 11.0711 11.1248 11.1753 10.9478C11.2821 10.7707 11.3381 10.5636 11.3433 10.3267H10.1167V9.44385H12.4761V10.147C12.4761 10.634 12.3719 11.0584 12.1636 11.4204C11.9578 11.7798 11.6701 12.0558 11.3003 12.2485C10.9305 12.4412 10.5073 12.5376 10.0308 12.5376C9.50472 12.5376 9.03988 12.4204 8.63623 12.186C8.23519 11.9491 7.92269 11.6131 7.69873 11.1782C7.47738 10.7407 7.3667 10.2277 7.3667 9.63916C7.3667 9.04281 7.48128 8.52458 7.71045 8.08447C7.93962 7.64437 8.25472 7.30843 8.65576 7.07666C9.0568 6.84229 9.50732 6.7251 10.0073 6.7251C10.4266 6.7251 10.8094 6.80583 11.1558 6.96729C11.5047 7.12614 11.7899 7.3501 12.0112 7.63916C12.2326 7.92562 12.3693 8.25374 12.4214 8.62354H11.2339Z" fill="#DC8C00"/>
<defs>
<filter id="filter0_i_1167_5176" x="0.362793" y="10.8496" width="7.9541" height="7.94971" filterUnits="userSpaceOnUse" color-interpolation-filters="sRGB">
<feFlood flood-opacity="0" result="BackgroundImageFix"/>
<feBlend mode="normal" in="SourceGraphic" in2="BackgroundImageFix" result="shape"/>
<feColorMatrix in="SourceAlpha" type="matrix" values="0 0 0 0 0 0 0 0 0 0 0 0 0 0 0 0 0 0 127 0" result="hardAlpha"/>
<feOffset dx="-0.5" dy="-0.5"/>
<feGaussianBlur stdDeviation="1"/>
<feComposite in2="hardAlpha" operator="arithmetic" k2="-1" k3="1"/>
<feColorMatrix type="matrix" values="0 0 0 0 1 0 0 0 0 0.54 0 0 0 0 0 0 0 0 0.48 0"/>
<feBlend mode="normal" in2="shape" result="effect1_innerShadow_1167_5176"/>
</filter>
<filter id="filter1_i_1167_5176" x="10.4873" y="3.46387" width="5.24219" height="5.23975" filterUnits="userSpaceOnUse" color-interpolation-filters="sRGB">
<feFlood flood-opacity="0" result="BackgroundImageFix"/>
<feBlend mode="normal" in="SourceGraphic" in2="BackgroundImageFix" result="shape"/>
<feColorMatrix in="SourceAlpha" type="matrix" values="0 0 0 0 0 0 0 0 0 0 0 0 0 0 0 0 0 0 127 0" result="hardAlpha"/>
<feOffset dx="-0.5" dy="-0.5"/>
<feGaussianBlur stdDeviation="1"/>
<feComposite in2="hardAlpha" operator="arithmetic" k2="-1" k3="1"/>
<feColorMatrix type="matrix" values="0 0 0 0 1 0 0 0 0 0.54 0 0 0 0 0 0 0 0 0.48 0"/>
<feBlend mode="normal" in2="shape" result="effect1_innerShadow_1167_5176"/>
</filter>
<filter id="filter2_i_1167_5176" x="0.577148" y="-0.168945" width="9.97363" height="9.97363" filterUnits="userSpaceOnUse" color-interpolation-filters="sRGB">
<feFlood flood-opacity="0" result="BackgroundImageFix"/>
<feBlend mode="normal" in="SourceGraphic" in2="BackgroundImageFix" result="shape"/>
<feColorMatrix in="SourceAlpha" type="matrix" values="0 0 0 0 0 0 0 0 0 0 0 0 0 0 0 0 0 0 127 0" result="hardAlpha"/>
<feOffset dx="-0.5" dy="-0.5"/>
<feGaussianBlur stdDeviation="1"/>
<feComposite in2="hardAlpha" operator="arithmetic" k2="-1" k3="1"/>
<feColorMatrix type="matrix" values="0 0 0 0 1 0 0 0 0 0.54 0 0 0 0 0 0 0 0 0.48 0"/>
<feBlend mode="normal" in2="shape" result="effect1_innerShadow_1167_5176"/>
</filter>
<filter id="filter3_i_1167_5176" x="9.36816" y="8.63379" width="9.97607" height="9.97021" filterUnits="userSpaceOnUse" color-interpolation-filters="sRGB">
<feFlood flood-opacity="0" result="BackgroundImageFix"/>
<feBlend mode="normal" in="SourceGraphic" in2="BackgroundImageFix" result="shape"/>
<feColorMatrix in="SourceAlpha" type="matrix" values="0 0 0 0 0 0 0 0 0 0 0 0 0 0 0 0 0 0 127 0" result="hardAlpha"/>
<feOffset dx="-0.5" dy="-0.5"/>
<feGaussianBlur stdDeviation="1"/>
<feComposite in2="hardAlpha" operator="arithmetic" k2="-1" k3="1"/>
<feColorMatrix type="matrix" values="0 0 0 0 1 0 0 0 0 0.54 0 0 0 0 0 0 0 0 0.48 0"/>
<feBlend mode="normal" in2="shape" result="effect1_innerShadow_1167_5176"/>
</filter>
<linearGradient id="paint0_linear_1167_5176" x1="6.06682" y1="10.3619" x2="2.85789" y2="18.9353" gradientUnits="userSpaceOnUse">
<stop stop-color="#FDD835"/>
<stop offset="1" stop-color="#FDAD35"/>
</linearGradient>
<linearGradient id="paint1_linear_1167_5176" x1="4.93061" y1="12.6915" x2="6.63597" y2="16.7098" gradientUnits="userSpaceOnUse">
<stop stop-color="#FFC500"/>
<stop offset="1" stop-color="#FFAA01"/>
</linearGradient>
<linearGradient id="paint2_linear_1167_5176" x1="4.93061" y1="12.6915" x2="6.63597" y2="16.7098" gradientUnits="userSpaceOnUse">
<stop stop-color="#FFAA01"/>
<stop offset="1" stop-color="#FF9900"/>
</linearGradient>
<linearGradient id="paint3_linear_1167_5176" x1="4.93061" y1="12.6915" x2="6.63597" y2="16.7098" gradientUnits="userSpaceOnUse">
<stop stop-color="#FFAA01"/>
<stop offset="1" stop-color="#FF8A00"/>
</linearGradient>
<linearGradient id="paint4_linear_1167_5176" x1="14.96" y1="4.73332" x2="11.4105" y2="8.28505" gradientUnits="userSpaceOnUse">
<stop stop-color="#FDD835"/>
<stop offset="1" stop-color="#FDAD35"/>
</linearGradient>
<linearGradient id="paint5_linear_1167_5176" x1="12.9916" y1="3.97739" x2="13.3056" y2="8.69043" gradientUnits="userSpaceOnUse">
<stop stop-color="#FFC500"/>
<stop offset="1" stop-color="#FFAA01"/>
</linearGradient>
<linearGradient id="paint6_linear_1167_5176" x1="12.9916" y1="3.97739" x2="13.3056" y2="8.69043" gradientUnits="userSpaceOnUse">
<stop stop-color="#FFAA01"/>
<stop offset="1" stop-color="#FF9900"/>
</linearGradient>
<linearGradient id="paint7_linear_1167_5176" x1="12.9916" y1="3.97739" x2="13.3056" y2="8.69043" gradientUnits="userSpaceOnUse">
<stop stop-color="#FFAA01"/>
<stop offset="1" stop-color="#FF8A00"/>
</linearGradient>
<linearGradient id="paint8_linear_1167_5176" x1="7.86314" y1="-1.4202" x2="5.006" y2="10.0084" gradientUnits="userSpaceOnUse">
<stop stop-color="#FDD835"/>
<stop offset="0.887367" stop-color="#FDAD35"/>
</linearGradient>
<linearGradient id="paint9_linear_1167_5176" x1="6.73711" y1="1.76116" x2="8.93656" y2="6.43815" gradientUnits="userSpaceOnUse">
<stop stop-color="#FFC500"/>
<stop offset="1" stop-color="#FFAA01"/>
</linearGradient>
<linearGradient id="paint10_linear_1167_5176" x1="6.73711" y1="1.76116" x2="8.93656" y2="6.43815" gradientUnits="userSpaceOnUse">
<stop stop-color="#FFC500"/>
<stop offset="1" stop-color="#FFAA01"/>
</linearGradient>
<linearGradient id="paint11_linear_1167_5176" x1="6.73711" y1="1.76116" x2="8.93656" y2="6.43815" gradientUnits="userSpaceOnUse">
<stop stop-color="#FFAA01"/>
<stop offset="1" stop-color="#FF8A00"/>
</linearGradient>
<linearGradient id="paint12_linear_1167_5176" x1="16.6561" y1="7.38299" x2="13.8014" y2="18.8088" gradientUnits="userSpaceOnUse">
<stop stop-color="#FDD835"/>
<stop offset="0.887367" stop-color="#FDAD35"/>
</linearGradient>
<linearGradient id="paint13_linear_1167_5176" x1="15.5297" y1="10.5634" x2="17.7276" y2="15.2399" gradientUnits="userSpaceOnUse">
<stop stop-color="#FFAA01"/>
<stop offset="1" stop-color="#FF9900"/>
</linearGradient>
<linearGradient id="paint14_linear_1167_5176" x1="15.5297" y1="10.5634" x2="17.7276" y2="15.2399" gradientUnits="userSpaceOnUse">
<stop stop-color="#FFAA01"/>
<stop offset="1" stop-color="#FF8A00"/>
</linearGradient>
</defs>
</svg>
