<svg width="18" height="18" viewBox="0 0 18 18" fill="none" xmlns="http://www.w3.org/2000/svg">
<g filter="url(#filter0_i_1217_12281)">
<path d="M9.0007 17.2556C13.6162 17.2556 17.3578 13.5163 17.3578 8.90368C17.3578 4.29104 13.6162 0.551758 9.0007 0.551758C4.38518 0.551758 0.643555 4.29104 0.643555 8.90368C0.643555 13.5163 4.38518 17.2556 9.0007 17.2556Z" fill="url(#paint0_radial_1217_12281)"/>
<path d="M9.0007 17.2556C13.6162 17.2556 17.3578 13.5163 17.3578 8.90368C17.3578 4.29104 13.6162 0.551758 9.0007 0.551758C4.38518 0.551758 0.643555 4.29104 0.643555 8.90368C0.643555 13.5163 4.38518 17.2556 9.0007 17.2556Z" fill="url(#paint1_linear_1217_12281)"/>
<path d="M9.00212 15.5862C12.6945 15.5862 15.6878 12.5948 15.6878 8.90469C15.6878 5.21457 12.6945 2.22314 9.00212 2.22314C5.3097 2.22314 2.31641 5.21457 2.31641 8.90469C2.31641 12.5948 5.3097 15.5862 9.00212 15.5862Z" fill="url(#paint2_radial_1217_12281)"/>
<path d="M9.00212 15.5862C12.6945 15.5862 15.6878 12.5948 15.6878 8.90469C15.6878 5.21457 12.6945 2.22314 9.00212 2.22314C5.3097 2.22314 2.31641 5.21457 2.31641 8.90469C2.31641 12.5948 5.3097 15.5862 9.00212 15.5862Z" fill="url(#paint3_radial_1217_12281)"/>
<path d="M9.00212 15.5862C12.6945 15.5862 15.6878 12.5948 15.6878 8.90469C15.6878 5.21457 12.6945 2.22314 9.00212 2.22314C5.3097 2.22314 2.31641 5.21457 2.31641 8.90469C2.31641 12.5948 5.3097 15.5862 9.00212 15.5862Z" fill="url(#paint4_linear_1217_12281)"/>
<path d="M7.01465 6.04639H10.981V7.05838H8.23884V8.49477H10.777V9.50677H8.23884V10.9432H10.9892V11.9551H7.01465V6.04639Z" fill="white"/>
</g>
<defs>
<filter id="filter0_i_1217_12281" x="-0.356445" y="-0.448242" width="17.7139" height="17.7036" filterUnits="userSpaceOnUse" color-interpolation-filters="sRGB">
<feFlood flood-opacity="0" result="BackgroundImageFix"/>
<feBlend mode="normal" in="SourceGraphic" in2="BackgroundImageFix" result="shape"/>
<feColorMatrix in="SourceAlpha" type="matrix" values="0 0 0 0 0 0 0 0 0 0 0 0 0 0 0 0 0 0 127 0" result="hardAlpha"/>
<feOffset dx="-1" dy="-1"/>
<feGaussianBlur stdDeviation="1"/>
<feComposite in2="hardAlpha" operator="arithmetic" k2="-1" k3="1"/>
<feColorMatrix type="matrix" values="0 0 0 0 1 0 0 0 0 0.16958 0 0 0 0 0.24004 0 0 0 1 0"/>
<feBlend mode="normal" in2="shape" result="effect1_innerShadow_1217_12281"/>
</filter>
<radialGradient id="paint0_radial_1217_12281" cx="0" cy="0" r="1" gradientUnits="userSpaceOnUse" gradientTransform="translate(3.30409 1.96113) scale(17.5031 17.4922)">
<stop stop-color="#D9EB00"/>
<stop offset="1" stop-color="#79B200"/>
</radialGradient>
<linearGradient id="paint1_linear_1217_12281" x1="14.701" y1="14.9352" x2="2.63692" y2="3.19891" gradientUnits="userSpaceOnUse">
<stop stop-color="#FF5160"/>
<stop offset="1" stop-color="#FF8892"/>
</linearGradient>
<radialGradient id="paint2_radial_1217_12281" cx="0" cy="0" r="1" gradientUnits="userSpaceOnUse" gradientTransform="translate(4.73328 3.38868) scale(16.8488 16.8383)">
<stop stop-color="#F06B30"/>
<stop offset="0.159" stop-color="#F37E3E"/>
<stop offset="0.73" stop-color="#FCBD6F"/>
<stop offset="1" stop-color="#FFD682"/>
</radialGradient>
<radialGradient id="paint3_radial_1217_12281" cx="0" cy="0" r="1" gradientUnits="userSpaceOnUse" gradientTransform="translate(4.73328 3.38868) scale(16.8488 16.8383)">
<stop stop-color="#7CB600"/>
<stop offset="1" stop-color="#EBFF00"/>
</radialGradient>
<linearGradient id="paint4_linear_1217_12281" x1="13.5624" y1="13.7299" x2="3.91109" y2="4.34087" gradientUnits="userSpaceOnUse">
<stop stop-color="#FF8892"/>
<stop offset="1" stop-color="#FF5160"/>
</linearGradient>
</defs>
</svg>
