<svg width="18" height="18" viewBox="0 0 18 18" fill="none" xmlns="http://www.w3.org/2000/svg">
<g filter="url(#filter0_i_1217_12266)">
<path d="M5.22168 10.2139L7.48534 12.4761L3.39817 16.5607C2.94672 17.0119 2.24291 17.04 1.82619 16.6236L1.07163 15.8695C0.654903 15.453 0.683055 14.7497 1.13451 14.2985L5.22168 10.2139Z" fill="url(#paint0_linear_1217_12266)"/>
<path d="M5.22168 10.2139L7.48534 12.4761L3.39817 16.5607C2.94672 17.0119 2.24291 17.04 1.82619 16.6236L1.07163 15.8695C0.654903 15.453 0.683055 14.7497 1.13451 14.2985L5.22168 10.2139Z" fill="url(#paint1_linear_1217_12266)"/>
<path d="M5.22168 10.2139L7.48534 12.4761L3.39817 16.5607C2.94672 17.0119 2.24291 17.04 1.82619 16.6236L1.07163 15.8695C0.654903 15.453 0.683055 14.7497 1.13451 14.2985L5.22168 10.2139Z" fill="url(#paint2_linear_1217_12266)"/>
<path d="M5.22168 10.2139L7.48534 12.4761L3.39817 16.5607C2.94672 17.0119 2.24291 17.04 1.82619 16.6236L1.07163 15.8695C0.654903 15.453 0.683055 14.7497 1.13451 14.2985L5.22168 10.2139Z" fill="url(#paint3_linear_1217_12266)"/>
</g>
<g filter="url(#filter1_i_1217_12266)">
<path d="M13.5316 7.20955C12.6981 8.04249 11.3468 8.04249 10.5134 7.20955C9.6799 6.37662 9.6799 5.02616 10.5134 4.19322C11.3468 3.36029 12.6981 3.36029 13.5316 4.19322C14.365 5.02616 14.365 6.37662 13.5316 7.20955Z" fill="url(#paint4_linear_1217_12266)"/>
<path d="M13.5316 7.20955C12.6981 8.04249 11.3468 8.04249 10.5134 7.20955C9.6799 6.37662 9.6799 5.02616 10.5134 4.19322C11.3468 3.36029 12.6981 3.36029 13.5316 4.19322C14.365 5.02616 14.365 6.37662 13.5316 7.20955Z" fill="url(#paint5_linear_1217_12266)"/>
<path d="M13.5316 7.20955C12.6981 8.04249 11.3468 8.04249 10.5134 7.20955C9.6799 6.37662 9.6799 5.02616 10.5134 4.19322C11.3468 3.36029 12.6981 3.36029 13.5316 4.19322C14.365 5.02616 14.365 6.37662 13.5316 7.20955Z" fill="url(#paint6_linear_1217_12266)"/>
<path d="M13.5316 7.20955C12.6981 8.04249 11.3468 8.04249 10.5134 7.20955C9.6799 6.37662 9.6799 5.02616 10.5134 4.19322C11.3468 3.36029 12.6981 3.36029 13.5316 4.19322C14.365 5.02616 14.365 6.37662 13.5316 7.20955Z" fill="url(#paint7_linear_1217_12266)"/>
</g>
<g filter="url(#filter2_i_1217_12266)">
<path d="M6.66018 0.493135C6.91312 0.240201 7.31517 0.23216 7.55818 0.475175L9.31826 2.23525C9.56128 2.47827 9.55323 2.88032 9.3003 3.13325L3.80455 8.629C3.55162 8.88193 3.14957 8.88997 2.90655 8.64696L1.14648 6.88688C0.90346 6.64387 0.911501 6.24182 1.16444 5.98888L6.66018 0.493135Z" fill="url(#paint8_linear_1217_12266)"/>
<path d="M6.66018 0.493135C6.91312 0.240201 7.31517 0.23216 7.55818 0.475175L9.31826 2.23525C9.56128 2.47827 9.55323 2.88032 9.3003 3.13325L3.80455 8.629C3.55162 8.88193 3.14957 8.88997 2.90655 8.64696L1.14648 6.88688C0.90346 6.64387 0.911501 6.24182 1.16444 5.98888L6.66018 0.493135Z" fill="url(#paint9_linear_1217_12266)"/>
<path d="M6.66018 0.493135C6.91312 0.240201 7.31517 0.23216 7.55818 0.475175L9.31826 2.23525C9.56128 2.47827 9.55323 2.88032 9.3003 3.13325L3.80455 8.629C3.55162 8.88193 3.14957 8.88997 2.90655 8.64696L1.14648 6.88688C0.90346 6.64387 0.911501 6.24182 1.16444 5.98888L6.66018 0.493135Z" fill="url(#paint10_linear_1217_12266)"/>
<path d="M6.66018 0.493135C6.91312 0.240201 7.31517 0.23216 7.55818 0.475175L9.31826 2.23525C9.56128 2.47827 9.55323 2.88032 9.3003 3.13325L3.80455 8.629C3.55162 8.88193 3.14957 8.88997 2.90655 8.64696L1.14648 6.88688C0.90346 6.64387 0.911501 6.24182 1.16444 5.98888L6.66018 0.493135Z" fill="url(#paint11_linear_1217_12266)"/>
</g>
<path d="M14.6592 8.32471L9.00003 13.9803L3.71815 8.70175L9.3773 3.04613L14.6592 8.32471Z" fill="#DBFF49"/>
<path d="M14.6592 8.32471L9.00003 13.9803L3.71815 8.70175L9.3773 3.04613L14.6592 8.32471Z" fill="#CCFF00"/>
<path d="M14.6592 8.32471L9.00003 13.9803L3.71815 8.70175L9.3773 3.04613L14.6592 8.32471Z" fill="#FFE600"/>
<g filter="url(#filter3_i_1217_12266)">
<path d="M14.5741 8.41633C14.8271 8.16348 15.2293 8.15544 15.4724 8.39838L17.233 10.1579C17.4761 10.4008 17.4681 10.8028 17.215 11.0556L11.7176 16.5497C11.4646 16.8025 11.0624 16.8105 10.8193 16.5676L9.05867 14.8081C8.81558 14.5651 8.82363 14.1632 9.07664 13.9104L14.5741 8.41633Z" fill="url(#paint12_linear_1217_12266)"/>
<path d="M14.5741 8.41633C14.8271 8.16348 15.2293 8.15544 15.4724 8.39838L17.233 10.1579C17.4761 10.4008 17.4681 10.8028 17.215 11.0556L11.7176 16.5497C11.4646 16.8025 11.0624 16.8105 10.8193 16.5676L9.05867 14.8081C8.81558 14.5651 8.82363 14.1632 9.07664 13.9104L14.5741 8.41633Z" fill="url(#paint13_linear_1217_12266)"/>
<path d="M14.5741 8.41633C14.8271 8.16348 15.2293 8.15544 15.4724 8.39838L17.233 10.1579C17.4761 10.4008 17.4681 10.8028 17.215 11.0556L11.7176 16.5497C11.4646 16.8025 11.0624 16.8105 10.8193 16.5676L9.05867 14.8081C8.81558 14.5651 8.82363 14.1632 9.07664 13.9104L14.5741 8.41633Z" fill="url(#paint14_linear_1217_12266)"/>
</g>
<path d="M10.1113 7.76084C10.041 7.51943 9.91094 7.33076 9.72109 7.19482C9.53359 7.05654 9.30273 6.9874 9.02852 6.9874C8.76602 6.9874 8.53516 7.05303 8.33594 7.18428C8.13672 7.31553 7.98203 7.50771 7.87187 7.76084C7.76172 8.01162 7.70664 8.31162 7.70664 8.66084C7.70664 9.01475 7.76055 9.31826 7.86836 9.57139C7.97852 9.82451 8.1332 10.0179 8.33242 10.1515C8.53164 10.2827 8.76602 10.3483 9.03555 10.3483C9.27461 10.3483 9.48086 10.3062 9.6543 10.2218C9.83008 10.1351 9.96484 10.012 10.0586 9.85264C10.1547 9.69326 10.2051 9.50693 10.2098 9.29365H9.10586V8.49912H11.2293V9.13193C11.2293 9.57021 11.1355 9.95225 10.948 10.278C10.7629 10.6015 10.5039 10.8499 10.1711 11.0233C9.83828 11.1968 9.45742 11.2835 9.02852 11.2835C8.55508 11.2835 8.13672 11.178 7.77344 10.9671C7.4125 10.7538 7.13125 10.4515 6.92969 10.0601C6.73047 9.66631 6.63086 9.20459 6.63086 8.6749C6.63086 8.13818 6.73398 7.67178 6.94023 7.27568C7.14648 6.87959 7.43008 6.57725 7.79102 6.36865C8.15195 6.15771 8.55742 6.05225 9.00742 6.05225C9.38477 6.05225 9.7293 6.1249 10.041 6.27021C10.3551 6.41318 10.6117 6.61475 10.8109 6.8749C11.0102 7.13271 11.1332 7.42803 11.1801 7.76084H10.1113Z" fill="#DC8C00"/>
<defs>
<filter id="filter0_i_1217_12266" x="0.276367" y="9.71387" width="7.20898" height="7.20459" filterUnits="userSpaceOnUse" color-interpolation-filters="sRGB">
<feFlood flood-opacity="0" result="BackgroundImageFix"/>
<feBlend mode="normal" in="SourceGraphic" in2="BackgroundImageFix" result="shape"/>
<feColorMatrix in="SourceAlpha" type="matrix" values="0 0 0 0 0 0 0 0 0 0 0 0 0 0 0 0 0 0 127 0" result="hardAlpha"/>
<feOffset dx="-0.5" dy="-0.5"/>
<feGaussianBlur stdDeviation="1"/>
<feComposite in2="hardAlpha" operator="arithmetic" k2="-1" k3="1"/>
<feColorMatrix type="matrix" values="0 0 0 0 1 0 0 0 0 0.54 0 0 0 0 0 0 0 0 0.48 0"/>
<feBlend mode="normal" in2="shape" result="effect1_innerShadow_1217_12266"/>
</filter>
<filter id="filter1_i_1217_12266" x="9.38867" y="3.06836" width="4.76758" height="4.76611" filterUnits="userSpaceOnUse" color-interpolation-filters="sRGB">
<feFlood flood-opacity="0" result="BackgroundImageFix"/>
<feBlend mode="normal" in="SourceGraphic" in2="BackgroundImageFix" result="shape"/>
<feColorMatrix in="SourceAlpha" type="matrix" values="0 0 0 0 0 0 0 0 0 0 0 0 0 0 0 0 0 0 127 0" result="hardAlpha"/>
<feOffset dx="-0.5" dy="-0.5"/>
<feGaussianBlur stdDeviation="1"/>
<feComposite in2="hardAlpha" operator="arithmetic" k2="-1" k3="1"/>
<feColorMatrix type="matrix" values="0 0 0 0 1 0 0 0 0 0.54 0 0 0 0 0 0 0 0 0.48 0"/>
<feBlend mode="normal" in2="shape" result="effect1_innerShadow_1217_12266"/>
</filter>
<filter id="filter2_i_1217_12266" x="0.469727" y="-0.202148" width="9.02539" height="9.02637" filterUnits="userSpaceOnUse" color-interpolation-filters="sRGB">
<feFlood flood-opacity="0" result="BackgroundImageFix"/>
<feBlend mode="normal" in="SourceGraphic" in2="BackgroundImageFix" result="shape"/>
<feColorMatrix in="SourceAlpha" type="matrix" values="0 0 0 0 0 0 0 0 0 0 0 0 0 0 0 0 0 0 127 0" result="hardAlpha"/>
<feOffset dx="-0.5" dy="-0.5"/>
<feGaussianBlur stdDeviation="1"/>
<feComposite in2="hardAlpha" operator="arithmetic" k2="-1" k3="1"/>
<feColorMatrix type="matrix" values="0 0 0 0 1 0 0 0 0 0.54 0 0 0 0 0 0 0 0 0.48 0"/>
<feBlend mode="normal" in2="shape" result="effect1_innerShadow_1217_12266"/>
</filter>
<filter id="filter3_i_1217_12266" x="8.38184" y="7.72119" width="9.02832" height="9.02344" filterUnits="userSpaceOnUse" color-interpolation-filters="sRGB">
<feFlood flood-opacity="0" result="BackgroundImageFix"/>
<feBlend mode="normal" in="SourceGraphic" in2="BackgroundImageFix" result="shape"/>
<feColorMatrix in="SourceAlpha" type="matrix" values="0 0 0 0 0 0 0 0 0 0 0 0 0 0 0 0 0 0 127 0" result="hardAlpha"/>
<feOffset dx="-0.5" dy="-0.5"/>
<feGaussianBlur stdDeviation="1"/>
<feComposite in2="hardAlpha" operator="arithmetic" k2="-1" k3="1"/>
<feColorMatrix type="matrix" values="0 0 0 0 1 0 0 0 0 0.54 0 0 0 0 0 0 0 0 0.48 0"/>
<feBlend mode="normal" in2="shape" result="effect1_innerShadow_1217_12266"/>
</filter>
<linearGradient id="paint0_linear_1217_12266" x1="5.46024" y1="9.32492" x2="2.5722" y2="17.041" gradientUnits="userSpaceOnUse">
<stop stop-color="#FDD835"/>
<stop offset="1" stop-color="#FDAD35"/>
</linearGradient>
<linearGradient id="paint1_linear_1217_12266" x1="4.43765" y1="11.4216" x2="5.97247" y2="15.0381" gradientUnits="userSpaceOnUse">
<stop stop-color="#FFC500"/>
<stop offset="1" stop-color="#FFAA01"/>
</linearGradient>
<linearGradient id="paint2_linear_1217_12266" x1="4.43765" y1="11.4216" x2="5.97247" y2="15.0381" gradientUnits="userSpaceOnUse">
<stop stop-color="#FFAA01"/>
<stop offset="1" stop-color="#FF9900"/>
</linearGradient>
<linearGradient id="paint3_linear_1217_12266" x1="4.43765" y1="11.4216" x2="5.97247" y2="15.0381" gradientUnits="userSpaceOnUse">
<stop stop-color="#FFAA01"/>
<stop offset="1" stop-color="#FF8A00"/>
</linearGradient>
<linearGradient id="paint4_linear_1217_12266" x1="13.4639" y1="4.26086" x2="10.2693" y2="7.45743" gradientUnits="userSpaceOnUse">
<stop stop-color="#FDD835"/>
<stop offset="1" stop-color="#FDAD35"/>
</linearGradient>
<linearGradient id="paint5_linear_1217_12266" x1="11.6923" y1="3.58053" x2="11.9749" y2="7.82227" gradientUnits="userSpaceOnUse">
<stop stop-color="#FFC500"/>
<stop offset="1" stop-color="#FFAA01"/>
</linearGradient>
<linearGradient id="paint6_linear_1217_12266" x1="11.6923" y1="3.58053" x2="11.9749" y2="7.82227" gradientUnits="userSpaceOnUse">
<stop stop-color="#FFAA01"/>
<stop offset="1" stop-color="#FF9900"/>
</linearGradient>
<linearGradient id="paint7_linear_1217_12266" x1="11.6923" y1="3.58053" x2="11.9749" y2="7.82227" gradientUnits="userSpaceOnUse">
<stop stop-color="#FFAA01"/>
<stop offset="1" stop-color="#FF8A00"/>
</linearGradient>
<linearGradient id="paint8_linear_1217_12266" x1="7.07673" y1="-1.27818" x2="4.5053" y2="9.00753" gradientUnits="userSpaceOnUse">
<stop stop-color="#FDD835"/>
<stop offset="0.887367" stop-color="#FDAD35"/>
</linearGradient>
<linearGradient id="paint9_linear_1217_12266" x1="6.0633" y1="1.58504" x2="8.0428" y2="5.79434" gradientUnits="userSpaceOnUse">
<stop stop-color="#FFC500"/>
<stop offset="1" stop-color="#FFAA01"/>
</linearGradient>
<linearGradient id="paint10_linear_1217_12266" x1="6.0633" y1="1.58504" x2="8.0428" y2="5.79434" gradientUnits="userSpaceOnUse">
<stop stop-color="#FFC500"/>
<stop offset="1" stop-color="#FFAA01"/>
</linearGradient>
<linearGradient id="paint11_linear_1217_12266" x1="6.0633" y1="1.58504" x2="8.0428" y2="5.79434" gradientUnits="userSpaceOnUse">
<stop stop-color="#FFAA01"/>
<stop offset="1" stop-color="#FF8A00"/>
</linearGradient>
<linearGradient id="paint12_linear_1217_12266" x1="14.9908" y1="6.64557" x2="12.4216" y2="16.9288" gradientUnits="userSpaceOnUse">
<stop stop-color="#FDD835"/>
<stop offset="0.887367" stop-color="#FDAD35"/>
</linearGradient>
<linearGradient id="paint13_linear_1217_12266" x1="13.977" y1="9.5079" x2="15.9551" y2="13.7168" gradientUnits="userSpaceOnUse">
<stop stop-color="#FFAA01"/>
<stop offset="1" stop-color="#FF9900"/>
</linearGradient>
<linearGradient id="paint14_linear_1217_12266" x1="13.977" y1="9.5079" x2="15.9551" y2="13.7168" gradientUnits="userSpaceOnUse">
<stop stop-color="#FFAA01"/>
<stop offset="1" stop-color="#FF8A00"/>
</linearGradient>
</defs>
</svg>
